<svg xmlns="http://www.w3.org/2000/svg" viewBox="0 0 100 100" width="100" height="100" role="img" aria-label="Plant">
  <circle cx="50" cy="50" r="34" fill="#a7bfa1"/>
  <g fill="#173021">
    <!-- leaves -->
    <path d="M50 60 C45.5 50 45.5 42 50 35 C54.5 42 54.5 50 50 60 Z"/>
    <path d="M49 60 C41 55 37 49 35 42 C43 45 48 52 51 59 Z"/>
    <path d="M51 60 C59 55 63 49 65 42 C57 45 52 52 49 59 Z"/>
    <!-- pot -->
    <rect x="40" y="58" width="20" height="4" rx="1.5"/>
    <path d="M42 63 L58 63 L55.5 73 L44.5 73 Z"/>
  </g>
</svg>
